<svg xmlns="http://www.w3.org/2000/svg" xmlns:xlink="http://www.w3.org/1999/xlink" width="153" height="31" viewBox="0 0 153 31"><defs><path id="99d1a" d="M204.387 39.23H206c-.225-.724-.412-2.21-.412-3.542V25.215c0-3.808-1.763-5.56-4.875-5.56-2.138 0-3.713.952-4.463 1.942l.487 1.714c.9-1.333 2.363-2.095 3.976-2.095 2.062 0 3.15 1.257 3.15 4.19v2.399H201.8c-4.088 0-6.3 2.132-6.3 6.245 0 3.504 1.762 5.56 4.313 5.56 1.875 0 3.225-1.142 4.125-2.97.112 1.371.3 2.095.45 2.59zm-7.162-5.332c0-3.351 1.498-4.798 4.606-4.798h2.022v5.293c-.674 2.057-1.91 3.77-3.67 3.77-1.797 0-2.958-1.561-2.958-4.265zM194 21.521v-1.485h-10.5v1.485h4.388V39.23h1.762V21.52zM180.65 39.23V20.036h-1.762v8.645s-1.125 1.485-3.188 1.485c-1.762 0-2.85-1.105-2.85-3.847v-6.283h-1.762v6.245c0 3.618 1.687 5.408 4.312 5.408 2.25 0 3.488-1.218 3.488-1.218v8.759zm-22.162-9.597c0-5.827 1.797-8.493 4.007-8.493s4.008 2.475 4.008 8.493c0 5.788-1.798 8.53-4.008 8.53s-4.008-2.551-4.008-8.53zm4.012 9.978c3.263 0 5.775-3.733 5.775-10.093 0-6.588-2.513-9.863-5.775-9.863-3.263 0-5.775 3.694-5.775 10.092 0 6.55 2.513 9.864 5.775 9.864zm-10.92-.381h1.872V12h-11.727v27.23h1.873V13.56h7.981zm-46.755-11.35h-4.838c.188-3.427.826-5.674 2.626-5.674 1.687 0 2.212 2.4 2.212 5.675zm-14.072 8.912h-5.015c1.571-4.075 1.758-9.978 1.758-14.014v-.343h3.257zm41.972 1.257l-.675-2.209c-.675.61-1.763 1.18-3.188 1.18-2.362 0-3.487-2.741-3.487-7.54 0-4.836 1.5-7.236 3.6-7.236 1.2 0 2.325.648 3.112 1.333l.413-2.818c-.825-.533-1.8-.99-3.487-.99-4.426 0-6.713 3.846-6.713 9.864 0 6.55 2.437 9.863 6.487 9.863 1.725 0 2.925-.57 3.938-1.447zm-13.987 1.18h3.187l-5.362-10.168 4.687-9.025h-2.962l-4.538 8.873v-8.873h-2.925V39.23h2.925v-9.56zM77.225 20.037v8.15h-4.35v-8.15H69.95V39.23h2.925v-8.607h4.35v8.607h2.888V20.036zm29.963 15.614c-.75.533-2.063 1.295-3.713 1.295-2.325 0-3.525-2.285-3.525-6.627h7.875v-1.637c0-6.513-2.063-8.912-5.213-8.912-4.012 0-5.7 4.494-5.7 10.663 0 5.903 2.4 9.064 6.3 9.064 1.875 0 3.45-.609 4.65-1.561zM95.15 36.792h-1.5V20.036h-8.775v1.637c0 5.103-.188 11.044-1.913 15.12H81.8V43h2.625v-3.77h8.1V43h2.625zM63.312 26.357h-1.537c-2.513 0-4.575-1.409-4.575-5.788 0-4.532 2.25-6.094 4.575-6.094h1.538zm0 2.438V39.23H66.2V12h-4.313c-4.237 0-7.8 2.856-7.8 8.569 0 4.075 1.576 6.284 3.938 7.502L53 39.23h3.338l4.575-10.435z"/></defs><g><g transform="translate(-53 -12)"><use fill="#010101" xlink:href="#99d1a"/></g></g></svg>